<?xml version="1.0" standalone="no"?>
<!DOCTYPE svg PUBLIC "-//W3C//DTD SVG 20010904//EN"
 "http://www.w3.org/TR/2001/REC-SVG-20010904/DTD/svg10.dtd">
<svg version="1.0" xmlns="http://www.w3.org/2000/svg"
 width="96.000000pt" height="96.000000pt" viewBox="0 0 96.000000 96.000000"
 preserveAspectRatio="xMidYMid meet">
<metadata>
Created by potrace 1.11, written by Peter Selinger 2001-2013
</metadata>
<g transform="translate(0.000000,96.000000) scale(0.100000,-0.100000)"
fill="#000000" stroke="none">
<path d="M69 863 c-1 -79 0 -175 3 -178 3 -3 56 -8 75 -6 9 1 12 18 10 56 -2
31 0 58 4 61 7 4 275 6 575 4 l70 0 -1 -47 c-2 -68 6 -79 52 -75 l38 4 -1 96
c-1 53 -2 100 -3 105 0 4 -185 7 -411 7 l-410 0 -1 -27z"/>
<path d="M69 256 c-2 -72 1 -177 4 -183 4 -6 728 -9 807 -4 12 1 15 19 15 101
1 55 -2 100 -5 101 -22 5 -80 4 -81 0 -1 -3 -2 -26 -3 -51 -1 -25 -4 -50 -8
-55 -10 -16 -627 -12 -637 3 -4 7 -6 32 -5 57 1 25 -1 45 -4 46 -4 1 -24 2
-44 3 -32 2 -38 -1 -39 -18z"/>
</g>
</svg>
