<?xml version="1.0" encoding="UTF-8" standalone="no"?><!DOCTYPE svg PUBLIC "-//W3C//DTD SVG 1.1//EN" "http://www.w3.org/Graphics/SVG/1.1/DTD/svg11.dtd"><svg width="100%" height="100%" viewBox="0 0 167 75" version="1.1" xmlns="http://www.w3.org/2000/svg" xmlns:xlink="http://www.w3.org/1999/xlink" xml:space="preserve" xmlns:serif="http://www.serif.com/" style="fill-rule:evenodd;clip-rule:evenodd;stroke-linejoin:round;stroke-miterlimit:1.41421;"><g><g><rect x="0" y="12.925" width="166.6" height="48.174" style="fill:#1a1a1a;"/><g><path d="M18.951,52.4c-1.504,0 -2.898,-0.293 -4.179,-0.878c-1.282,-0.585 -2.383,-1.393 -3.302,-2.424c-0.92,-1.031 -1.638,-2.236 -2.153,-3.616c-0.516,-1.379 -0.773,-2.863 -0.773,-4.451c0,-1.589 0.244,-3.065 0.731,-4.431c0.488,-1.365 1.164,-2.563 2.027,-3.594c0.864,-1.032 1.895,-1.84 3.093,-2.425c1.199,-0.585 2.508,-0.878 3.929,-0.878c1.617,0 3.073,0.391 4.368,1.171c1.296,0.78 2.306,1.797 3.031,3.051l0,-12.456l5.601,0l0,24.076c0,0.585 0.097,1.003 0.292,1.254c0.195,0.251 0.53,0.39 1.003,0.418l0,4.765c-0.975,0.195 -1.769,0.292 -2.382,0.292c-1.003,0 -1.825,-0.25 -2.466,-0.752c-0.641,-0.501 -1.003,-1.156 -1.087,-1.964l-0.125,-1.38c-0.808,1.394 -1.902,2.445 -3.281,3.156c-1.38,0.711 -2.822,1.066 -4.327,1.066Zm1.463,-4.765c0.53,0 1.073,-0.091 1.631,-0.272c0.557,-0.181 1.072,-0.439 1.546,-0.773c0.474,-0.334 0.899,-0.725 1.275,-1.17c0.376,-0.446 0.662,-0.934 0.857,-1.463l0,-5.225c-0.223,-0.613 -0.537,-1.177 -0.941,-1.693c-0.404,-0.515 -0.864,-0.961 -1.379,-1.338c-0.516,-0.376 -1.059,-0.675 -1.63,-0.898c-0.571,-0.223 -1.136,-0.335 -1.693,-0.335c-0.836,0 -1.609,0.182 -2.32,0.544c-0.71,0.362 -1.316,0.857 -1.818,1.484c-0.502,0.627 -0.892,1.344 -1.17,2.152c-0.279,0.808 -0.418,1.644 -0.418,2.508c0,0.92 0.153,1.77 0.459,2.55c0.307,0.78 0.725,1.463 1.254,2.048c0.53,0.585 1.164,1.045 1.902,1.379c0.739,0.335 1.554,0.502 2.445,0.502Z" style="fill:#fff;fill-rule:nonzero;"/><path d="M36.841,51.982l0,-21.902l5.601,0l0,21.902l-5.601,0Zm0,-24.954l0,-5.559l5.601,0l0,5.559l-5.601,0Z" style="fill:#fff;fill-rule:nonzero;"/><path d="M56.068,52.107c-1.477,0 -2.814,-0.292 -4.012,-0.877c-1.199,-0.586 -2.237,-1.387 -3.114,-2.404c-0.878,-1.017 -1.554,-2.194 -2.028,-3.532c-0.473,-1.337 -0.71,-2.759 -0.71,-4.263c0,-1.589 0.251,-3.065 0.752,-4.431c0.502,-1.365 1.198,-2.563 2.09,-3.594c0.892,-1.032 1.965,-1.84 3.219,-2.425c1.254,-0.585 2.633,-0.878 4.138,-0.878c1.699,0 3.19,0.384 4.472,1.15c1.282,0.766 2.341,1.79 3.177,3.072l0,-3.845l4.89,0l0,20.857c0,1.616 -0.306,3.065 -0.919,4.347c-0.613,1.282 -1.456,2.369 -2.529,3.26c-1.073,0.892 -2.355,1.575 -3.846,2.048c-1.49,0.474 -3.114,0.711 -4.869,0.711c-2.397,0 -4.41,-0.397 -6.04,-1.191c-1.63,-0.795 -3.03,-1.916 -4.201,-3.365l3.052,-2.968c0.836,1.031 1.887,1.839 3.155,2.425c1.268,0.585 2.613,0.877 4.034,0.877c0.864,0 1.693,-0.118 2.487,-0.355c0.794,-0.237 1.498,-0.606 2.111,-1.108c0.613,-0.501 1.093,-1.142 1.442,-1.922c0.348,-0.781 0.522,-1.7 0.522,-2.759l0,-2.759c-0.724,1.254 -1.741,2.223 -3.051,2.905c-1.31,0.683 -2.717,1.024 -4.222,1.024Zm1.881,-4.472c0.613,0 1.198,-0.098 1.756,-0.293c0.557,-0.195 1.073,-0.459 1.546,-0.794c0.474,-0.334 0.892,-0.724 1.254,-1.17c0.362,-0.446 0.641,-0.92 0.836,-1.421l0,-5.225c-0.501,-1.282 -1.289,-2.313 -2.361,-3.093c-1.073,-0.78 -2.195,-1.171 -3.365,-1.171c-0.864,0 -1.644,0.189 -2.341,0.565c-0.697,0.376 -1.296,0.877 -1.797,1.504c-0.502,0.627 -0.885,1.345 -1.15,2.153c-0.264,0.808 -0.397,1.644 -0.397,2.508c0,0.892 0.154,1.728 0.46,2.508c0.307,0.78 0.731,1.463 1.275,2.048c0.543,0.585 1.177,1.045 1.902,1.379c0.724,0.335 1.518,0.502 2.382,0.502Z" style="fill:#fff;fill-rule:nonzero;"/><path d="M74,51.982l0,-21.902l5.601,0l0,21.902l-5.601,0Zm0,-24.954l0,-5.559l5.601,0l0,5.559l-5.601,0Z" style="fill:#fff;fill-rule:nonzero;"/><path d="M97.783,50.853c-0.752,0.335 -1.672,0.669 -2.759,1.003c-1.087,0.335 -2.229,0.502 -3.427,0.502c-0.78,0 -1.512,-0.097 -2.195,-0.293c-0.682,-0.195 -1.281,-0.508 -1.797,-0.94c-0.515,-0.432 -0.927,-0.989 -1.233,-1.672c-0.307,-0.683 -0.46,-1.512 -0.46,-2.487l0,-12.581l-2.884,0l0,-4.305l2.884,0l0,-7.106l5.601,0l0,7.106l4.598,0l0,4.305l-4.598,0l0,10.7c0,0.78 0.202,1.331 0.606,1.651c0.404,0.321 0.899,0.481 1.484,0.481c0.585,0 1.156,-0.098 1.714,-0.293c0.557,-0.195 1.003,-0.362 1.337,-0.501l1.129,4.43Z" style="fill:#fff;fill-rule:nonzero;"/><path d="M106.686,52.4c-1.059,0 -2.048,-0.174 -2.968,-0.523c-0.919,-0.348 -1.714,-0.836 -2.382,-1.463c-0.669,-0.627 -1.192,-1.358 -1.568,-2.194c-0.376,-0.836 -0.564,-1.755 -0.564,-2.759c0,-1.031 0.23,-1.985 0.69,-2.863c0.459,-0.878 1.1,-1.623 1.922,-2.236c0.822,-0.613 1.805,-1.094 2.947,-1.442c1.143,-0.348 2.397,-0.523 3.762,-0.523c0.975,0 1.93,0.084 2.863,0.251c0.934,0.167 1.763,0.404 2.487,0.711l0,-1.254c0,-1.449 -0.411,-2.564 -1.233,-3.344c-0.822,-0.78 -2.041,-1.17 -3.657,-1.17c-1.171,0 -2.313,0.209 -3.428,0.627c-1.114,0.418 -2.257,1.031 -3.427,1.839l-1.714,-3.553c2.815,-1.867 5.852,-2.801 9.112,-2.801c3.149,0 5.594,0.774 7.336,2.32c1.741,1.547 2.612,3.783 2.612,6.709l0,6.813c0,0.585 0.105,1.003 0.314,1.254c0.209,0.251 0.55,0.39 1.024,0.418l0,4.765c-0.948,0.195 -1.77,0.292 -2.466,0.292c-1.059,0 -1.874,-0.236 -2.446,-0.71c-0.571,-0.474 -0.926,-1.101 -1.065,-1.881l-0.126,-1.212c-0.975,1.282 -2.159,2.257 -3.553,2.926c-1.393,0.668 -2.884,1.003 -4.472,1.003Zm1.588,-4.096c0.948,0 1.846,-0.168 2.696,-0.502c0.85,-0.334 1.512,-0.78 1.986,-1.337c0.613,-0.474 0.919,-1.004 0.919,-1.589l0,-2.508c-0.669,-0.25 -1.393,-0.453 -2.173,-0.606c-0.781,-0.153 -1.533,-0.23 -2.257,-0.23c-1.449,0 -2.634,0.328 -3.553,0.983c-0.92,0.654 -1.38,1.483 -1.38,2.487c0,0.947 0.363,1.734 1.087,2.361c0.725,0.627 1.616,0.941 2.675,0.941Z" style="fill:#fff;fill-rule:nonzero;"/><path d="M124.659,21.469l5.601,0l0,23.491c0,0.808 0.195,1.435 0.585,1.881c0.39,0.446 0.948,0.668 1.672,0.668c0.335,0 0.704,-0.055 1.108,-0.167c0.404,-0.111 0.787,-0.25 1.149,-0.418l0.753,4.264c-0.753,0.362 -1.63,0.641 -2.634,0.836c-1.003,0.195 -1.908,0.292 -2.717,0.292c-1.755,0 -3.113,-0.466 -4.075,-1.4c-0.961,-0.933 -1.442,-2.264 -1.442,-3.992l0,-25.455Z" style="fill:#fff;fill-rule:nonzero;"/><path d="M143.928,52.4c-1.059,0 -2.048,-0.174 -2.968,-0.523c-0.919,-0.348 -1.713,-0.836 -2.382,-1.463c-0.669,-0.627 -1.191,-1.358 -1.568,-2.194c-0.376,-0.836 -0.564,-1.755 -0.564,-2.759c0,-1.031 0.23,-1.985 0.69,-2.863c0.46,-0.878 1.101,-1.623 1.923,-2.236c0.822,-0.613 1.804,-1.094 2.946,-1.442c1.143,-0.348 2.397,-0.523 3.762,-0.523c0.976,0 1.93,0.084 2.863,0.251c0.934,0.167 1.763,0.404 2.487,0.711l0,-1.254c0,-1.449 -0.411,-2.564 -1.233,-3.344c-0.822,-0.78 -2.041,-1.17 -3.657,-1.17c-1.17,0 -2.313,0.209 -3.427,0.627c-1.115,0.418 -2.258,1.031 -3.428,1.839l-1.714,-3.553c2.815,-1.867 5.852,-2.801 9.112,-2.801c3.149,0 5.594,0.774 7.336,2.32c1.742,1.547 2.612,3.783 2.612,6.709l0,6.813c0,0.585 0.105,1.003 0.314,1.254c0.209,0.251 0.55,0.39 1.024,0.418l0,4.765c-0.948,0.195 -1.77,0.292 -2.466,0.292c-1.059,0 -1.874,-0.236 -2.445,-0.71c-0.572,-0.474 -0.927,-1.101 -1.066,-1.881l-0.126,-1.212c-0.975,1.282 -2.159,2.257 -3.552,2.926c-1.394,0.668 -2.885,1.003 -4.473,1.003Zm1.588,-4.096c0.948,0 1.847,-0.168 2.696,-0.502c0.85,-0.334 1.512,-0.78 1.986,-1.337c0.613,-0.474 0.919,-1.004 0.919,-1.589l0,-2.508c-0.668,-0.25 -1.393,-0.453 -2.173,-0.606c-0.78,-0.153 -1.533,-0.23 -2.257,-0.23c-1.449,0 -2.634,0.328 -3.553,0.983c-0.92,0.654 -1.379,1.483 -1.379,2.487c0,0.947 0.362,1.734 1.086,2.361c0.725,0.627 1.617,0.941 2.675,0.941Z" style="fill:#fff;fill-rule:nonzero;"/></g></g><path d="M74.381,63.792l4.495,0l0,10.436l-41.495,0l0,-10.436l4.496,0l0,5.941l32.504,0l0,-5.941Zm4.495,-53.144l-4.495,0l0,-6.152l-32.504,0l0,6.152l-4.496,0l0,-10.648l41.495,0l0,10.648Z" style="fill:#2bd9c1;"/></g></svg>