<?xml version="1.0" encoding="UTF-8"?>
<svg width="20px" height="20px" viewBox="0 0 20 20" version="1.1" xmlns="http://www.w3.org/2000/svg" xmlns:xlink="http://www.w3.org/1999/xlink">
    <!-- Generator: Sketch 54.1 (76490) - https://sketchapp.com -->
    <title>icon / object / book-open</title>
    <desc>Created with Sketch.</desc>
    <g id="May19_abtest" stroke="none" stroke-width="1" fill="none" fill-rule="evenodd">
        <g id="coupon_cards" transform="translate(-774.000000, -5582.000000)" fill="#2bd9c1" fill-rule="nonzero">
            <g id="icon-/-object-/-part" transform="translate(768.000000, 5576.000000)">
                <path d="M25,15 C25.5522847,15 26,15.4477153 26,16 C26,21.5228475 21.5228475,26 16,26 C10.4771525,26 6,21.5228475 6,16 C6,10.4771525 10.4771525,6 16,6 C16.5522847,6 17,6.44771525 17,7 L17,15 L25,15 Z M26,12 C26,12.5522847 25.5522847,13 25,13 L20,13 C19.4477153,13 19,12.5522847 19,12 L19,7 C19,6.44771525 19.4477153,6 20,6 C23.3137085,6 26,8.6862915 26,12 Z M8,16 C8,20.418278 11.581722,24 16,24 C20.0796177,24 23.4460082,20.9463116 23.9381062,17 L16,17 C15.4477153,17 15,16.5522847 15,16 L15,8.06189375 C11.0536884,8.55399184 8,11.9203823 8,16 Z M21,8.12601749 L21,11 L23.8739825,11 C23.5122042,9.59439271 22.4056073,8.4877958 21,8.12601749 Z" id="🎨-icon-color"></path>
            </g>
        </g>
    </g>
</svg>